<?xml version="1.0" encoding="UTF-8"?>
<svg width="16px" height="16px" viewBox="0 0 16 16" version="1.1" xmlns="http://www.w3.org/2000/svg" xmlns:xlink="http://www.w3.org/1999/xlink">
    <title>TenantlistSVG备份 18</title>
    <g id="icon" stroke="none" stroke-width="1" fill="none" fill-rule="evenodd">
        <g id="平台icon" transform="translate(-302.000000, -2003.000000)">
            <g id="TenantlistSVG备份-18" transform="translate(302.000000, 2003.000000)">
                <rect id="矩形" x="0" y="0" width="16" height="16"></rect>
                <g id="编组" transform="translate(3.000000, 3.000000)" fill="#FFFFFF" fill-rule="nonzero">
                    <path d="M5.82601252,0.16076116 C6.00600518,0.298755803 6.1110009,0.506747723 6.1110009,0.726739195 L6.11058426,2.83105749 L8.59131645,3.43343411 C8.92827053,3.51402599 9.16514537,3.80404375 9.16629302,4.13740679 L9.16629302,5.3013616 C7.8174717,4.51260467 6.05971486,4.8978617 5.20111717,6.17043053 C4.34251949,7.44299936 4.6950771,9.14045555 5.99642223,9.99957921 L5.35603167,9.99957921 L5.34686539,9.99998625 L0.763718869,9.99998625 C0.561979569,10.0008296 0.368157248,9.92468175 0.224919772,9.78829878 C0.0816822961,9.6519158 0.000771855526,9.46647799 0,9.27280743 L0,1.68110214 C0,1.33911542 0.24998981,1.0435269 0.600808849,0.970729717 L5.18395535,0.0167667502 C5.40963943,-0.0301995978 5.64536274,0.0226661603 5.82601252,0.16076116 L5.82601252,0.16076116 Z M8.14550131,5.59972553 C8.28466229,5.59972553 8.39882432,5.69414636 8.41924015,5.82374131 L8.48882063,6.27572377 C8.57090063,6.3109224 8.65256396,6.35412073 8.73047746,6.40491877 L9.1921253,6.23212547 C9.31893622,6.18899096 9.45977696,6.238539 9.52752829,6.35012089 L9.96084397,7.05329359 C10.0308566,7.16436316 10.0026834,7.30820817 9.89542997,7.38728062 L9.50711246,7.67006965 C9.51127895,7.70926813 9.51544546,7.75246645 9.51544546,7.79966461 C9.51544546,7.84686278 9.51127897,7.8900611 9.50711246,7.92925958 L9.89542997,8.21204861 C10.001307,8.28987016 10.0310255,8.43081087 9.96501046,8.5420358 L9.52752829,9.25320818 C9.47944587,9.3352688 9.38808308,9.38512413 9.29003797,9.38280315 C9.25665939,9.38321943 9.22348077,9.37779789 9.1921253,9.36680378 L8.7300608,9.19441046 C8.65325638,9.24352806 8.57260139,9.28685617 8.48882063,9.32400543 L8.41924015,9.77958775 C8.39704231,9.90771799 8.28079357,10.0011418 8.14550131,9.99959852 L7.27053697,9.99959852 C7.13373574,10.0010428 7.01674889,9.90546191 6.99638147,9.77558791 L6.92680098,9.32360545 C6.84258466,9.28743823 6.76185802,9.24420547 6.68556082,9.19441046 L6.22349631,9.36720376 C6.0966854,9.41033827 5.95584465,9.36079023 5.88809332,9.24920834 L5.45477765,8.54603564 C5.38476501,8.43496607 5.41293819,8.29112106 5.52019164,8.21204861 L5.90850915,7.92925958 C5.90017615,7.88206142 5.90017615,7.8388631 5.90017615,7.79966461 C5.90017615,7.76046613 5.90434264,7.71726781 5.90850915,7.67006965 L5.52019164,7.38728062 C5.41345444,7.30790443 5.38536092,7.16446615 5.45477765,7.05329359 L5.89225982,6.34612105 C5.94034223,6.26406043 6.03170502,6.2142051 6.12975013,6.21652608 C6.16312872,6.2161098 6.19630734,6.22153134 6.2276628,6.23252545 L6.68972731,6.40491877 C6.77139064,6.35412074 6.84930414,6.31092242 6.93096747,6.2753238 L6.99638147,5.81974148 C7.01860288,5.69145963 7.13508769,5.59798836 7.27053697,5.59972553 L8.14550131,5.59972553 Z M7.70801914,6.85690121 C7.16638445,6.85843987 6.7277654,7.27969369 6.72639247,7.79966461 C6.7277654,8.31963553 7.16638445,8.74088936 7.70801914,8.74242802 C8.24949109,8.74066983 8.68785736,8.31948001 8.68922914,7.79966461 C8.68785736,7.27984922 8.24949109,6.8586594 7.70801914,6.85690121 L7.70801914,6.85690121 Z M4.2014954,6.72890619 L1.90992215,6.72890619 C1.67368178,6.72890619 1.54702028,6.83290216 1.52993764,7.04209403 L1.52827104,7.09209208 L1.52993764,7.14209014 C1.54535367,7.33408269 1.65326595,7.43767866 1.8532578,7.45327806 L1.90992215,7.45567796 L4.2014954,7.45567796 C4.43815241,7.45567796 4.56481393,7.35128201 4.58147991,7.14209014 L4.58356316,7.09209208 L4.58147991,7.04209403 C4.56481393,6.83330214 4.43815241,6.72890619 4.2014954,6.72890619 L4.2014954,6.72890619 Z M4.2014954,4.91177672 L1.90992215,4.91177672 C1.67368178,4.91177672 1.54702028,5.01577269 1.52993764,5.22496456 L1.52827104,5.27496262 L1.52993764,5.32496069 C1.54535367,5.51695324 1.65326595,5.62054921 1.8532578,5.6361486 L1.90992215,5.63854851 L4.2014954,5.63854851 C4.43815241,5.63854851 4.56481393,5.53415256 4.58147991,5.32496069 L4.58356316,5.27496262 L4.58147991,5.22496456 C4.56481393,5.01617266 4.43815241,4.91177672 4.2014954,4.91177672 L4.2014954,4.91177672 Z M4.2014954,3.09464727 L1.90992215,3.09464727 C1.67368178,3.09464727 1.54702028,3.19864323 1.52993764,3.40783511 L1.52827104,3.45783317 L1.52993764,3.50823122 C1.54535367,3.69942379 1.65326595,3.80341976 1.8532578,3.81941913 L1.90992215,3.82141906 L4.2014954,3.82141906 C4.43815241,3.82141906 4.56481393,3.71702311 4.58147991,3.50823122 L4.58356316,3.45783317 L4.58147991,3.40783511 C4.56481393,3.19904321 4.43815241,3.09464727 4.2014954,3.09464727 Z" id="形状"></path>
                </g>
            </g>
        </g>
    </g>
</svg>